<?xml version="1.0" encoding="UTF-8" standalone="no"?>
<!-- Created with Inkscape (http://www.inkscape.org/) -->

<svg
   width="35.277779mm"
   height="35.277782mm"
   viewBox="0 0 35.277779 35.277782"
   version="1.1"
   id="svg1"
   xmlns="http://www.w3.org/2000/svg"
   xmlns:svg="http://www.w3.org/2000/svg">
  <defs
     id="defs1" />
  <g
     id="layer1"
     transform="translate(-51.66324,-63.37018)">
    <g
       id="g293">
      <rect
         style="fill:#493b72;fill-opacity:1;stroke-width:0.264583;stroke-linecap:round;stroke-linejoin:bevel"
         id="rect3"
         width="35.277779"
         height="35.277779"
         x="51.663239"
         y="63.370178"
         ry="7.0555553" />
      <path
         style="color:#000000;font-style:normal;font-variant:normal;font-weight:normal;font-stretch:normal;font-size:medium;line-height:normal;font-family:sans-serif;font-variant-ligatures:normal;font-variant-position:normal;font-variant-caps:normal;font-variant-numeric:normal;font-variant-alternates:normal;font-variant-east-asian:normal;font-feature-settings:normal;font-variation-settings:normal;text-indent:0;text-align:start;text-decoration-line:none;text-decoration-style:solid;text-decoration-color:#000000;letter-spacing:normal;word-spacing:normal;text-transform:none;writing-mode:lr-tb;direction:ltr;text-orientation:mixed;dominant-baseline:auto;baseline-shift:baseline;text-anchor:start;white-space:normal;shape-padding:0;shape-margin:0;inline-size:0;clip-rule:nonzero;display:inline;overflow:visible;visibility:visible;isolation:auto;mix-blend-mode:normal;color-interpolation:sRGB;color-interpolation-filters:linearRGB;solid-color:#000000;solid-opacity:1;fill:#ffffff;fill-opacity:1;fill-rule:nonzero;stroke:none;stroke-width:0.141244;stroke-linecap:butt;stroke-linejoin:miter;stroke-miterlimit:4;stroke-dasharray:none;stroke-dashoffset:0;stroke-opacity:1;color-rendering:auto;image-rendering:auto;shape-rendering:auto;text-rendering:auto;enable-background:accumulate;stop-color:#000000"
         d="m 82.503467,76.990772 c -0.269729,0.588818 -0.852771,1.104364 -1.220379,1.644323 -0.737757,1.083629 -1.304667,2.516412 -2.367231,3.326015 1.17973,0.491306 1.805529,2.052014 2.536496,3.02705 0.327573,0.43695 0.830019,0.886659 1.051114,1.382723 -1.045343,-0.428873 -1.913463,-1.24311 -2.637366,-2.092775 -0.441571,-0.518289 -0.825585,-1.110812 -1.361325,-1.539388 -0.45179,-0.361412 -0.912346,-0.334677 -1.420099,-0.533342 -0.392148,-0.153435 -0.715416,-0.464929 -0.955236,-0.804832 -0.570487,-0.808546 -0.80296,-1.799731 -1.207202,-2.69071 -0.148004,-0.32621 -0.418503,-0.812595 -0.827235,-0.83078 -0.662882,-0.02952 -1.039837,1.050012 -1.221335,1.540827 -0.650017,1.757797 -0.772835,3.64799 -1.357293,5.41879 -0.236382,0.716198 -0.839247,2.109189 -1.83115,1.61324 -1.000417,-0.500211 -1.121571,-1.990514 -1.279807,-2.958593 -0.262387,-1.605274 -0.522136,-3.20634 -1.061727,-4.746113 -0.28074,-0.801115 -0.684055,-1.700436 -1.432929,-2.165065 -0.693946,-0.43055 -1.633187,-0.175107 -2.354369,0.05995 -1.869808,0.609442 -3.577817,1.775682 -4.970338,3.151647 -0.424094,0.419048 -0.830643,0.853843 -1.217269,1.30784 -0.134718,0.158193 -0.357035,0.369945 -0.335672,0.597935 0.04266,0.455494 0.732592,0.992553 1.026401,1.307982 0.78443,0.84215 1.6628,1.677104 2.694056,2.212964 0.553084,0.287387 1.226513,0.437521 1.793805,0.100547 0.498223,-0.295947 0.719394,-0.77938 0.98318,-1.267123 0.676314,-1.25051 0.92395,-2.705585 1.034854,-4.110804 0.945454,1.407135 0.353516,3.422217 -0.327113,4.78348 -0.372954,0.745913 -0.919157,1.446148 -1.765663,1.663817 -1.960592,0.504146 -3.787634,-1.473875 -5.008257,-2.710346 -0.442747,-0.448497 -1.093924,-1.033318 -1.303397,-1.644181 -0.366926,-1.070029 1.035912,-2.166657 1.715169,-2.806163 1.534136,-1.444347 3.249743,-2.711816 5.269161,-3.384957 0.855747,-0.28525 1.831456,-0.516723 2.728082,-0.293663 0.957253,0.238147 1.495508,0.971974 1.915144,1.813415 0.76998,1.543921 1.045958,3.359412 1.326902,5.045079 0.114201,0.685215 0.214979,1.386273 0.404589,2.055404 0.07015,0.247526 0.167695,0.586884 0.426944,0.701714 0.22001,0.09745 0.379659,-0.16569 0.463039,-0.328007 0.240117,-0.467426 0.379128,-0.983928 0.492599,-1.494835 0.331096,-1.490755 0.598457,-3.012344 1.135114,-4.447144 0.252681,-0.675575 0.581458,-1.425445 1.235117,-1.798333 0.187176,-0.106779 0.386045,-0.158413 0.597935,-0.187176 1.759808,-0.238886 2.131895,2.090115 2.71265,3.25612 0.209681,0.420982 0.544853,1.117415 1.099186,1.118128 0.729135,8.85e-4 1.289496,-0.978488 1.66018,-1.491835 0.775521,-1.073986 1.863014,-2.36095 3.160675,-2.802826 m -21.301443,2.518014 c 1.456416,-0.0899 1.691969,2.22868 0.224224,2.33684 -0.276297,0.02036 -0.543605,-0.0074 -0.784788,-0.154099 -0.983569,-0.597948 -0.569575,-2.112983 0.560564,-2.182741 z"
         id="path1" />
    </g>
  </g>
</svg>
